<?xml version="1.0" encoding="UTF-8"?>
<!DOCTYPE svg PUBLIC "-//W3C//DTD SVG 1.1//EN" "http://www.w3.org/Graphics/SVG/1.1/DTD/svg11.dtd">
<svg xmlns="http://www.w3.org/2000/svg" xmlns:xlink="http://www.w3.org/1999/xlink" version="1.1" width="388px" height="612px" viewBox="-0.5 -0.5 388 612" style="background-color: rgb(255, 255, 255);"><defs/><g><path d="M 104 61 L 104.39 84.63" fill="none" stroke="rgb(0, 0, 0)" stroke-miterlimit="10" pointer-events="stroke"/><path d="M 104.48 89.88 L 100.87 82.94 L 104.39 84.63 L 107.86 82.82 Z" fill="rgb(0, 0, 0)" stroke="rgb(0, 0, 0)" stroke-miterlimit="10" pointer-events="all"/><ellipse cx="104" cy="31" rx="50" ry="30" fill="rgb(255, 255, 255)" stroke="rgb(0, 0, 0)" stroke-width="2" pointer-events="all"/><g fill="rgb(0, 0, 0)" font-family="Helvetica" text-anchor="middle" font-size="12px"><text x="103.5" y="35.5">Begin</text></g><path d="M 104.5 141 L 104.5 164.63" fill="none" stroke="rgb(0, 0, 0)" stroke-miterlimit="10" pointer-events="stroke"/><path d="M 104.5 169.88 L 101 162.88 L 104.5 164.63 L 108 162.88 Z" fill="rgb(0, 0, 0)" stroke="rgb(0, 0, 0)" stroke-miterlimit="10" pointer-events="all"/><rect x="27" y="91" width="155" height="50" rx="7" ry="7" fill="rgb(255, 255, 255)" stroke="rgb(0, 0, 0)" stroke-width="2" pointer-events="all"/><g fill="rgb(0, 0, 0)" font-family="Helvetica" text-anchor="middle" font-size="12px"><text x="104" y="113.5">Receive data from </text><text x="104" y="127.5">RX1 and RX2</text></g><path d="M 104.5 221 L 104.84 234.63" fill="none" stroke="rgb(0, 0, 0)" stroke-miterlimit="10" pointer-events="stroke"/><path d="M 104.97 239.88 L 101.3 232.97 L 104.84 234.63 L 108.3 232.8 Z" fill="rgb(0, 0, 0)" stroke="rgb(0, 0, 0)" stroke-miterlimit="10" pointer-events="all"/><rect x="27" y="171" width="155" height="50" rx="7" ry="7" fill="rgb(255, 255, 255)" stroke="rgb(0, 0, 0)" stroke-width="2" pointer-events="all"/><g fill="rgb(0, 0, 0)" font-family="Helvetica" text-anchor="middle" font-size="12px"><text x="104" y="200.5">Reconstruct timestamps</text></g><path d="M 104.5 341 L 104.5 364.63" fill="none" stroke="rgb(0, 0, 0)" stroke-miterlimit="10" pointer-events="stroke"/><path d="M 104.5 369.88 L 101 362.88 L 104.5 364.63 L 108 362.88 Z" fill="rgb(0, 0, 0)" stroke="rgb(0, 0, 0)" stroke-miterlimit="10" pointer-events="all"/><g fill="rgb(0, 0, 0)" font-family="Helvetica" text-anchor="middle" font-size="11px"><rect fill="rgb(255, 255, 255)" stroke="none" x="116" y="345" width="29" height="14" stroke-width="0"/><text x="129" y="355">False</text></g><path d="M 174.5 291 L 276.5 291 L 276.5 364.63" fill="none" stroke="rgb(0, 0, 0)" stroke-miterlimit="10" pointer-events="stroke"/><path d="M 276.5 369.88 L 273 362.88 L 276.5 364.63 L 280 362.88 Z" fill="rgb(0, 0, 0)" stroke="rgb(0, 0, 0)" stroke-miterlimit="10" pointer-events="all"/><g fill="rgb(0, 0, 0)" font-family="Helvetica" text-anchor="middle" font-size="11px"><rect fill="rgb(255, 255, 255)" stroke="none" x="208" y="275" width="24" height="14" stroke-width="0"/><text x="219" y="285">True</text></g><path d="M 104.5 241 L 174.5 291 L 104.5 341 L 34.5 291 Z" fill="rgb(255, 255, 255)" stroke="rgb(0, 0, 0)" stroke-width="2" stroke-miterlimit="10" pointer-events="all"/><g fill="rgb(0, 0, 0)" font-family="Helvetica" text-anchor="middle" font-size="12px"><text x="104" y="295.5">ts_diff &lt; tolerance </text></g><path d="M 27 396 L 7 396 L 7 151 L 104.5 151 L 104.5 164.63" fill="none" stroke="rgb(0, 0, 0)" stroke-miterlimit="10" pointer-events="stroke"/><path d="M 104.5 169.88 L 101 162.88 L 104.5 164.63 L 108 162.88 Z" fill="rgb(0, 0, 0)" stroke="rgb(0, 0, 0)" stroke-miterlimit="10" pointer-events="all"/><rect x="27" y="371" width="155" height="50" rx="7" ry="7" fill="rgb(255, 255, 255)" stroke="rgb(0, 0, 0)" stroke-width="2" pointer-events="all"/><g fill="rgb(0, 0, 0)" font-family="Helvetica" text-anchor="middle" font-size="12px"><text x="104" y="400.5">Receive from lagging radio</text></g><path d="M 276.5 421 L 276.5 434.63" fill="none" stroke="rgb(0, 0, 0)" stroke-miterlimit="10" pointer-events="stroke"/><path d="M 276.5 439.88 L 273 432.88 L 276.5 434.63 L 280 432.88 Z" fill="rgb(0, 0, 0)" stroke="rgb(0, 0, 0)" stroke-miterlimit="10" pointer-events="all"/><rect x="199" y="371" width="155" height="50" rx="7" ry="7" fill="rgb(255, 255, 255)" stroke="rgb(0, 0, 0)" stroke-width="2" pointer-events="all"/><g fill="rgb(0, 0, 0)" font-family="Helvetica" text-anchor="middle" font-size="12px"><text x="276" y="400.5">Format data</text></g><path d="M 276.5 541 L 276.5 554.63" fill="none" stroke="rgb(0, 0, 0)" stroke-miterlimit="10" pointer-events="stroke"/><path d="M 276.5 559.88 L 273 552.88 L 276.5 554.63 L 280 552.88 Z" fill="rgb(0, 0, 0)" stroke="rgb(0, 0, 0)" stroke-miterlimit="10" pointer-events="all"/><g fill="rgb(0, 0, 0)" font-family="Helvetica" text-anchor="middle" font-size="11px"><rect fill="rgb(255, 255, 255)" stroke="none" x="250" y="545" width="20" height="14" stroke-width="0"/><text x="259" y="555">Yes</text></g><path d="M 346.5 491 L 379 491 L 379 116 L 188.37 116" fill="none" stroke="rgb(0, 0, 0)" stroke-miterlimit="10" pointer-events="stroke"/><path d="M 183.12 116 L 190.12 112.5 L 188.37 116 L 190.12 119.5 Z" fill="rgb(0, 0, 0)" stroke="rgb(0, 0, 0)" stroke-miterlimit="10" pointer-events="all"/><g fill="rgb(0, 0, 0)" font-family="Helvetica" text-anchor="middle" font-size="11px"><rect fill="rgb(255, 255, 255)" stroke="none" x="352" y="475" width="16" height="14" stroke-width="0"/><text x="359" y="485">No</text></g><path d="M 276.5 441 L 346.5 491 L 276.5 541 L 206.5 491 Z" fill="rgb(255, 255, 255)" stroke="rgb(0, 0, 0)" stroke-width="2" stroke-miterlimit="10" pointer-events="all"/><g fill="rgb(0, 0, 0)" font-family="Helvetica" text-anchor="middle" font-size="12px"><text x="276" y="495.5">Have data request?</text></g><path d="M 354 586 L 379 586 L 379 116 L 188.37 116" fill="none" stroke="rgb(0, 0, 0)" stroke-miterlimit="10" pointer-events="stroke"/><path d="M 183.12 116 L 190.12 112.5 L 188.37 116 L 190.12 119.5 Z" fill="rgb(0, 0, 0)" stroke="rgb(0, 0, 0)" stroke-miterlimit="10" pointer-events="all"/><rect x="199" y="561" width="155" height="50" rx="7" ry="7" fill="rgb(255, 255, 255)" stroke="rgb(0, 0, 0)" stroke-width="2" pointer-events="all"/><g fill="rgb(0, 0, 0)" font-family="Helvetica" text-anchor="middle" font-size="12px"><text x="276" y="583.5">Send data over ZMQ</text><text x="276" y="597.5">to NN script</text></g></g></svg>