<?xml version="1.0" encoding="UTF-8"?>
<!DOCTYPE svg PUBLIC "-//W3C//DTD SVG 1.1//EN" "http://www.w3.org/Graphics/SVG/1.1/DTD/svg11.dtd">
<svg xmlns="http://www.w3.org/2000/svg" xmlns:xlink="http://www.w3.org/1999/xlink" version="1.1" width="1223px" height="337px" viewBox="-0.5 -0.5 1223 337" style="background-color: rgb(255, 255, 255);"><defs/><g><rect x="371" y="172.5" width="320" height="125" fill="none" stroke="#999999" stroke-width="3" stroke-dasharray="9 9" pointer-events="all"/><rect x="756" y="145" width="55" height="30" fill="none" stroke="none" pointer-events="all"/><g fill="rgb(0, 0, 0)" font-family="Helvetica" text-anchor="middle" font-size="12px"><text x="783" y="157.5">ZMQ</text><text x="783" y="171.5"> REP/REQ</text></g><path d="M 101 70 L 129.63 70" fill="none" stroke="rgb(0, 0, 0)" stroke-miterlimit="10" pointer-events="stroke"/><path d="M 134.88 70 L 127.88 73.5 L 129.63 70 L 127.88 66.5 Z" fill="rgb(0, 0, 0)" stroke="rgb(0, 0, 0)" stroke-miterlimit="10" pointer-events="all"/><rect x="11" y="55" width="90" height="30" fill="rgb(255, 255, 255)" stroke="rgb(0, 0, 0)" pointer-events="all"/><g fill="rgb(0, 0, 0)" font-family="Helvetica" text-anchor="middle" font-size="12px"><text x="55.5" y="67.5"> Modulated</text><text x="55.5" y="81.5">PN Sequence</text></g><path d="M 181 70 L 206 70 L 206 35 L 224.63 35" fill="none" stroke="rgb(0, 0, 0)" stroke-miterlimit="10" pointer-events="stroke"/><path d="M 229.88 35 L 222.88 38.5 L 224.63 35 L 222.88 31.5 Z" fill="rgb(0, 0, 0)" stroke="rgb(0, 0, 0)" stroke-miterlimit="10" pointer-events="all"/><path d="M 181 70 L 206 70 L 206 105 L 224.63 105" fill="none" stroke="rgb(0, 0, 0)" stroke-miterlimit="10" pointer-events="stroke"/><path d="M 229.88 105 L 222.88 108.5 L 224.63 105 L 222.88 101.5 Z" fill="rgb(0, 0, 0)" stroke="rgb(0, 0, 0)" stroke-miterlimit="10" pointer-events="all"/><rect x="136" y="55" width="45" height="30" fill="rgb(255, 255, 255)" stroke="rgb(0, 0, 0)" pointer-events="all"/><g fill="rgb(0, 0, 0)" font-family="Helvetica" text-anchor="middle" font-size="12px"><text x="158" y="74.5">TX</text></g><path d="M 291 35 L 324.63 35" fill="none" stroke="rgb(0, 0, 0)" stroke-miterlimit="10" pointer-events="stroke"/><path d="M 329.88 35 L 322.88 38.5 L 324.63 35 L 322.88 31.5 Z" fill="rgb(0, 0, 0)" stroke="rgb(0, 0, 0)" stroke-miterlimit="10" pointer-events="all"/><path d="M 291 35 L 311 35 L 311 205 L 384.63 205" fill="none" stroke="#ff0000" stroke-miterlimit="10" stroke-dasharray="3 3" pointer-events="stroke"/><path d="M 389.88 205 L 382.88 208.5 L 384.63 205 L 382.88 201.5 Z" fill="#ff0000" stroke="#ff0000" stroke-miterlimit="10" pointer-events="all"/><rect x="231" y="20" width="60" height="30" fill="rgb(255, 255, 255)" stroke="rgb(0, 0, 0)" pointer-events="all"/><g fill="rgb(0, 0, 0)" font-family="Helvetica" text-anchor="middle" font-size="12px"><text x="260.5" y="39.5">RX1</text></g><path d="M 291 105 L 324.63 105" fill="none" stroke="rgb(0, 0, 0)" stroke-miterlimit="10" pointer-events="stroke"/><path d="M 329.88 105 L 322.88 108.5 L 324.63 105 L 322.88 101.5 Z" fill="rgb(0, 0, 0)" stroke="rgb(0, 0, 0)" stroke-miterlimit="10" pointer-events="all"/><path d="M 261 120 L 261 265 L 384.63 265" fill="none" stroke="#ff0000" stroke-miterlimit="10" stroke-dasharray="3 3" pointer-events="stroke"/><path d="M 389.88 265 L 382.88 268.5 L 384.63 265 L 382.88 261.5 Z" fill="#ff0000" stroke="#ff0000" stroke-miterlimit="10" pointer-events="all"/><rect x="231" y="90" width="60" height="30" fill="rgb(255, 255, 255)" stroke="rgb(0, 0, 0)" pointer-events="all"/><g fill="rgb(0, 0, 0)" font-family="Helvetica" text-anchor="middle" font-size="12px"><text x="260.5" y="109.5">RX2</text></g><path d="M 521 265 L 544.63 265" fill="none" stroke="#ff0000" stroke-miterlimit="10" stroke-dasharray="3 3" pointer-events="stroke"/><path d="M 549.88 265 L 542.88 268.5 L 544.63 265 L 542.88 261.5 Z" fill="#ff0000" stroke="#ff0000" stroke-miterlimit="10" pointer-events="all"/><rect x="391" y="245" width="130" height="40" fill="rgb(255, 255, 255)" stroke="rgb(0, 0, 0)" pointer-events="all"/><g fill="rgb(0, 0, 0)" font-family="Helvetica" text-anchor="middle" font-size="12px"><text x="455.5" y="262.5">Real-Time</text><text x="455.5" y="276.5">Correlation Processing</text></g><path d="M 401 70 L 419.63 70" fill="none" stroke="rgb(0, 0, 0)" stroke-miterlimit="10" pointer-events="stroke"/><path d="M 424.88 70 L 417.88 73.5 L 419.63 70 L 417.88 66.5 Z" fill="rgb(0, 0, 0)" stroke="rgb(0, 0, 0)" stroke-miterlimit="10" pointer-events="all"/><rect x="331" y="0" width="70" height="140" fill="rgb(255, 255, 255)" stroke="rgb(0, 0, 0)" pointer-events="all"/><g fill="rgb(0, 0, 0)" font-family="Helvetica" text-anchor="middle" font-size="12px"><text x="365.5" y="67.5">File </text><text x="365.5" y="81.5">System</text></g><path d="M 748.5 178.63 L 748.5 136.37" fill="none" stroke="#ff0000" stroke-miterlimit="10" stroke-dasharray="3 3" pointer-events="stroke"/><path d="M 748.5 183.88 L 745 176.88 L 748.5 178.63 L 752 176.88 Z" fill="#ff0000" stroke="#ff0000" stroke-miterlimit="10" pointer-events="all"/><path d="M 748.5 131.12 L 752 138.12 L 748.5 136.37 L 745 138.12 Z" fill="#ff0000" stroke="#ff0000" stroke-miterlimit="10" pointer-events="all"/><rect x="706" y="185" width="85" height="100" fill="rgb(255, 255, 255)" stroke="rgb(0, 0, 0)" pointer-events="all"/><g fill="rgb(0, 0, 0)" font-family="Helvetica" text-anchor="middle" font-size="12px"><text x="748" y="232.5">Data </text><text x="748" y="246.5">Sync</text></g><path d="M 621 265 L 700.06 265" fill="none" stroke="#ff0000" stroke-miterlimit="10" stroke-dasharray="3 3" pointer-events="stroke"/><path d="M 705.31 265 L 698.31 268.5 L 700.06 265 L 698.31 261.5 Z" fill="#ff0000" stroke="#ff0000" stroke-miterlimit="10" pointer-events="all"/><rect x="551" y="245" width="70" height="40" fill="rgb(255, 255, 255)" stroke="rgb(0, 0, 0)" pointer-events="all"/><g fill="rgb(0, 0, 0)" font-family="Helvetica" text-anchor="middle" font-size="12px"><text x="585.5" y="262.5">Format </text><text x="585.5" y="276.5">Data</text></g><path d="M 521 205 L 544.63 205" fill="none" stroke="#ff0000" stroke-miterlimit="10" stroke-dasharray="3 3" pointer-events="stroke"/><path d="M 549.88 205 L 542.88 208.5 L 544.63 205 L 542.88 201.5 Z" fill="#ff0000" stroke="#ff0000" stroke-miterlimit="10" pointer-events="all"/><rect x="391" y="185" width="130" height="40" fill="rgb(255, 255, 255)" stroke="rgb(0, 0, 0)" pointer-events="all"/><g fill="rgb(0, 0, 0)" font-family="Helvetica" text-anchor="middle" font-size="12px"><text x="455.5" y="202.5">Real-Time</text><text x="455.5" y="216.5">Correlation Processing</text></g><path d="M 621 205 L 700.06 205" fill="none" stroke="#ff0000" stroke-miterlimit="10" stroke-dasharray="3 3" pointer-events="stroke"/><path d="M 705.31 205 L 698.31 208.5 L 700.06 205 L 698.31 201.5 Z" fill="#ff0000" stroke="#ff0000" stroke-miterlimit="10" pointer-events="all"/><rect x="551" y="185" width="70" height="40" fill="rgb(255, 255, 255)" stroke="rgb(0, 0, 0)" pointer-events="all"/><g fill="rgb(0, 0, 0)" font-family="Helvetica" text-anchor="middle" font-size="12px"><text x="585.5" y="202.5">Format </text><text x="585.5" y="216.5">Data</text></g><path d="M 556 70 L 579.63 70" fill="none" stroke="rgb(0, 0, 0)" stroke-miterlimit="10" pointer-events="stroke"/><path d="M 584.88 70 L 577.88 73.5 L 579.63 70 L 577.88 66.5 Z" fill="rgb(0, 0, 0)" stroke="rgb(0, 0, 0)" stroke-miterlimit="10" pointer-events="all"/><rect x="426" y="50" width="130" height="40" fill="rgb(255, 255, 255)" stroke="rgb(0, 0, 0)" pointer-events="all"/><g fill="rgb(0, 0, 0)" font-family="Helvetica" text-anchor="middle" font-size="12px"><text x="490.5" y="67.5">Static Data</text><text x="490.5" y="81.5">Correlation Processing</text></g><rect x="631" y="220" width="55" height="30" fill="none" stroke="none" pointer-events="all"/><g fill="rgb(0, 0, 0)" font-family="Helvetica" text-anchor="middle" font-size="12px"><text x="658" y="232.5">ZMQ</text><text x="658" y="246.5">PUB/SUB</text></g><path d="M 676 70 L 699.63 70" fill="none" stroke="rgb(0, 0, 0)" stroke-miterlimit="10" pointer-events="stroke"/><path d="M 704.88 70 L 697.88 73.5 L 699.63 70 L 697.88 66.5 Z" fill="rgb(0, 0, 0)" stroke="rgb(0, 0, 0)" stroke-miterlimit="10" pointer-events="all"/><rect x="586" y="50" width="90" height="40" fill="rgb(255, 255, 255)" stroke="rgb(0, 0, 0)" pointer-events="all"/><g fill="rgb(0, 0, 0)" font-family="Helvetica" text-anchor="middle" font-size="12px"><text x="630.5" y="67.5">Format </text><text x="630.5" y="81.5">Data</text></g><path d="M 896 90 L 909.63 90" fill="none" stroke="#000000" stroke-miterlimit="10" pointer-events="stroke"/><path d="M 914.88 90 L 907.88 93.5 L 909.63 90 L 907.88 86.5 Z" fill="#000000" stroke="#000000" stroke-miterlimit="10" pointer-events="all"/><rect x="811" y="50" width="85" height="80" fill="rgb(255, 255, 255)" stroke="rgb(0, 0, 0)" pointer-events="all"/><g fill="rgb(0, 0, 0)" font-family="Helvetica" text-anchor="middle" font-size="12px"><text x="853" y="87.5">Grid-based</text><text x="853" y="101.5">Particle Filter</text></g><rect x="916" y="50" width="85" height="80" fill="rgb(255, 255, 255)" stroke="rgb(0, 0, 0)" pointer-events="all"/><g fill="rgb(0, 0, 0)" font-family="Helvetica" text-anchor="middle" font-size="12px"><text x="958" y="87.5">File </text><text x="958" y="101.5">System</text></g><path d="M 1112.37 90 L 1129.63 90" fill="none" stroke="#000000" stroke-miterlimit="10" pointer-events="stroke"/><path d="M 1107.12 90 L 1114.12 86.5 L 1112.37 90 L 1114.12 93.5 Z" fill="#000000" stroke="#000000" stroke-miterlimit="10" pointer-events="all"/><path d="M 1134.88 90 L 1127.88 93.5 L 1129.63 90 L 1127.88 86.5 Z" fill="#000000" stroke="#000000" stroke-miterlimit="10" pointer-events="all"/><rect x="1021" y="50" width="85" height="80" fill="rgb(255, 255, 255)" stroke="rgb(0, 0, 0)" pointer-events="all"/><g fill="rgb(0, 0, 0)" font-family="Helvetica" text-anchor="middle" font-size="12px"><text x="1063" y="87.5">Web</text><text x="1063" y="101.5">Server</text></g><path d="M 1001 70 L 1014.63 70" fill="none" stroke="rgb(0, 0, 0)" stroke-miterlimit="10" pointer-events="stroke"/><path d="M 1019.88 70 L 1012.88 73.5 L 1014.63 70 L 1012.88 66.5 Z" fill="rgb(0, 0, 0)" stroke="rgb(0, 0, 0)" stroke-miterlimit="10" pointer-events="all"/><path d="M 1001 110 L 1014.63 110" fill="none" stroke="#ff0000" stroke-miterlimit="10" stroke-dasharray="3 3" pointer-events="stroke"/><path d="M 1019.88 110 L 1012.88 113.5 L 1014.63 110 L 1012.88 106.5 Z" fill="#ff0000" stroke="#ff0000" stroke-miterlimit="10" pointer-events="all"/><rect x="1136" y="50" width="85" height="80" fill="rgb(255, 255, 255)" stroke="rgb(0, 0, 0)" pointer-events="all"/><g fill="rgb(0, 0, 0)" font-family="Helvetica" text-anchor="middle" font-size="12px"><text x="1178" y="87.5">Web</text><text x="1178" y="101.5">Browser</text></g><path d="M 791 90 L 804.63 90" fill="none" stroke="#000000" stroke-miterlimit="10" pointer-events="stroke"/><path d="M 809.88 90 L 802.88 93.5 L 804.63 90 L 802.88 86.5 Z" fill="#000000" stroke="#000000" stroke-miterlimit="10" pointer-events="all"/><rect x="706" y="50" width="85" height="80" fill="rgb(255, 255, 255)" stroke="rgb(0, 0, 0)" pointer-events="all"/><g fill="rgb(0, 0, 0)" font-family="Helvetica" text-anchor="middle" font-size="12px"><text x="748" y="87.5">Neural</text><text x="748" y="101.5">Network</text></g><rect x="484.75" y="305" width="92.5" height="30" fill="none" stroke="none" pointer-events="all"/><g fill="rgb(0, 0, 0)" font-family="Helvetica" text-anchor="middle" font-size="12px"><text x="530.5" y="310.5">GNU Radio</text><text x="530.5" y="324.5">Real-Time</text></g><rect x="1" y="5" width="300" height="125" fill="none" stroke="#999999" stroke-width="3" stroke-dasharray="9 9" pointer-events="all"/><rect x="112.25" y="135" width="92.5" height="30" fill="none" stroke="none" pointer-events="all"/><g fill="rgb(0, 0, 0)" font-family="Helvetica" text-anchor="middle" font-size="12px"><text x="158" y="147.5">GNU Radio</text></g></g></svg>